<?xml version="1.0" encoding="UTF-8" standalone="no"?>
<svg
   version="1.1"
   x="0px"
   y="0px"
   viewBox="0 0 100 100"
   enable-background="new 0 0 64 64"
   xml:space="preserve"
   id="svg2"
   sodipodi:docname="noun-bell-496647.svg"
   width="100"
   height="100"
   inkscape:version="1.4 (e7c3feb100, 2024-10-09)"
   xmlns:inkscape="http://www.inkscape.org/namespaces/inkscape"
   xmlns:sodipodi="http://sodipodi.sourceforge.net/DTD/sodipodi-0.dtd"
   xmlns="http://www.w3.org/2000/svg"
   xmlns:svg="http://www.w3.org/2000/svg"
   xmlns:ns="http://ns.adobe.com/SaveForWeb/1.0/"><defs
     id="defs2" /><sodipodi:namedview
     id="namedview2"
     pagecolor="#ffffff"
     bordercolor="#000000"
     borderopacity="0.25"
     inkscape:showpageshadow="2"
     inkscape:pageopacity="0.0"
     inkscape:pagecheckerboard="0"
     inkscape:deskcolor="#d1d1d1"
     inkscape:zoom="3.7123106"
     inkscape:cx="51.989184"
     inkscape:cy="65.188511"
     inkscape:window-width="1920"
     inkscape:window-height="1050"
     inkscape:window-x="0"
     inkscape:window-y="30"
     inkscape:window-maximized="0"
     inkscape:current-layer="svg2" /><metadata
     id="metadata1"><ns:sfw><ns:slices /><ns:sliceSourceBounds
         height="16384"
         width="16389"
         x="-8165"
         y="-8160"
         bottomLeftOrigin="true" /><ns:optimizationSettings><ns:targetSettings
           targetSettingsID="0"
           fileFormat="PNG24Format"><ns:PNG24Format
             transparency="true"
             filtered="false"
             interlaced="false"
             noMatteColor="false"
             matteColor="#FFFFFF" /></ns:targetSettings></ns:optimizationSettings></ns:sfw></metadata><g
     id="g1"
     transform="matrix(1.5384615,0,0,1.5384615,0.769232,0.769232)"
     style="fill:#ffffff;fill-opacity:1"><path
       d="M 54,48 C 51.494,48 48,42.294 48,33 V 30 C 48,23.018 43.497,17.081 37.248,14.902 37.726,14.041 38,13.053 38,12 38,8.691 35.309,6 32,6 c -3.309,0 -6,2.691 -6,6 0,1.053 0.274,2.042 0.752,2.902 C 20.503,17.081 16,23.018 16,30 v 3 c 0,9.294 -3.495,15 -6,15 -1.104,0 -2,0.896 -2,2 0,1.104 0.896,2 2,2 h 20 v 4 c 0,1.104 0.896,2 2,2 1.104,0 2,-0.896 2,-2 v -4 h 20 c 1.104,0 2,-0.896 2,-2 0,-1.104 -0.896,-2 -2,-2 z M 30,12 c 0,-1.103 0.897,-2 2,-2 1.103,0 2,0.897 2,2 0,1.103 -0.897,2 -2,2 -1.103,0 -2,-0.897 -2,-2 z"
       id="path1"
       style="fill:#ffffff;fill-opacity:1" /></g></svg>
