<?xml version="1.0" encoding="UTF-8" standalone="no"?>
<svg
   version="1.1"
   x="0px"
   y="0px"
   viewBox="0 0 100 100"
   xml:space="preserve"
   id="svg2"
   sodipodi:docname="noun-battery-6372815.svg"
   width="100"
   height="100"
   inkscape:version="1.4 (e7c3feb100, 2024-10-09)"
   xmlns:inkscape="http://www.inkscape.org/namespaces/inkscape"
   xmlns:sodipodi="http://sodipodi.sourceforge.net/DTD/sodipodi-0.dtd"
   xmlns="http://www.w3.org/2000/svg"
   xmlns:svg="http://www.w3.org/2000/svg"><defs
     id="defs2" /><sodipodi:namedview
     id="namedview2"
     pagecolor="#ffffff"
     bordercolor="#000000"
     borderopacity="0.25"
     inkscape:showpageshadow="2"
     inkscape:pageopacity="0.0"
     inkscape:pagecheckerboard="0"
     inkscape:deskcolor="#d1d1d1"
     inkscape:zoom="6.72"
     inkscape:cx="47.247024"
     inkscape:cy="44.940476"
     inkscape:window-width="1920"
     inkscape:window-height="1050"
     inkscape:window-x="0"
     inkscape:window-y="30"
     inkscape:window-maximized="0"
     inkscape:current-layer="svg2" /><style
     type="text/css"
     id="style1">
	.st0{fill-rule:evenodd;clip-rule:evenodd;}
</style><path
     id="path1"
     style="stroke-width:0.912964;fill:#ffffff;fill-opacity:1"
     d="M 41.105469 5 L 41.105469 7.9394531 C 41.105469 8.674147 40.56201 9.2246094 39.835938 9.2246094 L 31.484375 9.2246094 C 29.033879 9.2246094 26.766476 10.235611 25.132812 11.888672 C 23.499149 13.541733 22.5 15.836814 22.5 18.316406 L 22.5 85.908203 C 22.5 88.387795 23.499149 90.682875 25.132812 92.335938 C 26.766476 93.988998 29.033879 95 31.484375 95 L 68.515625 95 C 70.966121 95 73.233524 93.988998 74.867188 92.335938 C 76.50085 90.682875 77.5 88.387795 77.5 85.908203 L 77.5 18.316406 C 77.5 15.836814 76.501888 13.541733 74.958984 11.888672 C 73.325321 10.235611 71.055964 9.2246094 68.605469 9.2246094 L 60.255859 9.2246094 C 59.529786 9.2246094 58.984375 8.674147 58.984375 7.9394531 L 58.984375 5 L 41.105469 5 z M 31.484375 11.335938 L 68.515625 11.335938 C 70.421566 11.335938 72.145389 12.071708 73.416016 13.357422 C 74.595884 14.643136 75.412109 16.387834 75.412109 18.316406 L 75.503906 18.316406 L 75.503906 85.908203 C 75.503906 87.836775 74.776486 89.581474 73.505859 90.867188 C 72.235232 92.061065 70.511409 92.888672 68.605469 92.888672 L 31.484375 92.888672 C 29.578434 92.888672 27.854611 92.152901 26.583984 90.867188 C 25.404116 89.581474 24.587891 87.836775 24.587891 85.908203 L 24.587891 18.316406 C 24.587891 16.387834 25.313357 14.643136 26.583984 13.357422 C 27.854611 12.163544 29.578434 11.335938 31.484375 11.335938 z M 31.484375 13.908203 C 30.213747 13.908203 29.21527 14.366828 28.398438 15.193359 C 27.581605 16.019889 27.128906 17.122528 27.128906 18.316406 L 27.128906 85.908203 C 27.128906 87.102081 27.581605 88.20472 28.398438 89.03125 C 29.21527 89.857781 30.304507 90.316406 31.484375 90.316406 L 68.515625 90.316406 C 69.786253 90.316406 70.78473 89.857781 71.601562 89.03125 C 72.418395 88.20472 72.871094 87.102081 72.871094 85.908203 L 72.871094 18.316406 C 72.871094 17.030691 72.418395 16.019889 71.601562 15.193359 C 70.784731 14.458665 69.785337 13.908203 68.605469 13.908203 L 31.484375 13.908203 z M 50.060547 20 C 50.462203 20.007576 50.868039 20.143131 51.201172 20.4375 L 64.501953 32.189453 C 65.162652 32.773277 65.162652 33.718019 64.501953 34.298828 L 52.396484 45.001953 L 64.503906 55.699219 C 65.164605 56.283033 65.164605 57.227785 64.503906 57.808594 L 51.205078 69.560547 C 50.139055 70.502518 48.320312 69.825035 48.320312 68.503906 L 48.320312 48.603516 L 37.902344 57.808594 C 36.328897 59.19894 33.942176 57.086559 35.515625 55.699219 L 47.623047 45.001953 L 35.515625 34.302734 C 33.942176 32.912388 36.332297 30.803013 37.902344 32.193359 L 48.316406 41.396484 L 48.316406 21.494141 C 48.316406 20.587957 49.176904 19.983333 50.060547 20 z M 51.699219 25.099609 L 51.699219 41.396484 L 60.921875 33.246094 L 51.699219 25.099609 z M 51.699219 48.607422 L 51.699219 64.902344 L 60.921875 56.753906 L 51.699219 48.607422 z M 30.486328 76.816406 L 69.513672 76.816406 C 70.239745 76.816406 70.783203 77.366868 70.783203 78.101562 L 70.783203 85.908203 C 70.783203 86.459224 70.511473 87.101403 70.148438 87.46875 C 69.785402 87.836097 69.240782 88.111328 68.605469 88.111328 L 31.484375 88.111328 C 30.849061 88.111328 30.214599 87.836097 29.851562 87.46875 C 29.488526 87.101403 29.216797 86.55106 29.216797 85.908203 L 29.216797 78.101562 C 29.216797 77.366869 29.760255 76.816406 30.486328 76.816406 z M 31.757812 79.388672 L 31.757812 85.632812 L 68.242188 85.632812 L 68.242188 79.388672 L 31.757812 79.388672 z " /></svg>
