<?xml version="1.0" encoding="UTF-8" standalone="no"?>
<svg
   version="1.1"
   width="240"
   height="240"
   viewBox="0 0 24 24"
   id="svg1"
   sodipodi:docname="lock.svg"
   inkscape:version="1.4 (e7c3feb100, 2024-10-09)"
   xmlns:inkscape="http://www.inkscape.org/namespaces/inkscape"
   xmlns:sodipodi="http://sodipodi.sourceforge.net/DTD/sodipodi-0.dtd"
   xmlns="http://www.w3.org/2000/svg"
   xmlns:svg="http://www.w3.org/2000/svg">
  <defs
     id="defs1" />
  <sodipodi:namedview
     id="namedview1"
     pagecolor="#ffffff"
     bordercolor="#000000"
     borderopacity="0.25"
     inkscape:showpageshadow="2"
     inkscape:pageopacity="0.0"
     inkscape:pagecheckerboard="0"
     inkscape:deskcolor="#d1d1d1"
     inkscape:zoom="2.4748737"
     inkscape:cx="128.89546"
     inkscape:cy="119.198"
     inkscape:window-width="1920"
     inkscape:window-height="1050"
     inkscape:window-x="0"
     inkscape:window-y="30"
     inkscape:window-maximized="0"
     inkscape:current-layer="svg1" />
  <path
     fill="#ffffff"
     d="m 12,16.125 a 1.5,1.5 0 0 0 1.5,-1.5 c 0,-0.8325 -0.675,-1.5 -1.5,-1.5 a 1.5,1.5 0 0 0 -1.5,1.5 1.5,1.5 0 0 0 1.5,1.5 m 4.5,-6.75 a 1.5,1.5 0 0 1 1.5,1.5 v 7.5 a 1.5,1.5 0 0 1 -1.5,1.5 h -9 A 1.5,1.5 0 0 1 6,18.375 v -7.5 c 0,-0.8325 0.675,-1.5 1.5,-1.5 h 0.75 v -1.5 a 3.75,3.75 0 0 1 3.75,-3.75 3.75,3.75 0 0 1 3.75,3.75 v 1.5 H 16.5 M 12,5.625 a 2.25,2.25 0 0 0 -2.25,2.25 v 1.5 h 4.5 v -1.5 A 2.25,2.25 0 0 0 12,5.625 Z"
     id="path1"
     style="stroke-width:0.75" />
</svg>
