<?xml version="1.0" encoding="UTF-8" standalone="no"?>
<svg
   version="1.1"
   viewBox="-5 -10 100 100"
   id="svg2"
   sodipodi:docname="loop.svg"
   width="100"
   height="100"
   inkscape:version="1.4 (e7c3feb100, 2024-10-09)"
   xmlns:inkscape="http://www.inkscape.org/namespaces/inkscape"
   xmlns:sodipodi="http://sodipodi.sourceforge.net/DTD/sodipodi-0.dtd"
   xmlns="http://www.w3.org/2000/svg"
   xmlns:svg="http://www.w3.org/2000/svg">
  <defs
     id="defs2" />
  <sodipodi:namedview
     id="namedview2"
     pagecolor="#ffffff"
     bordercolor="#000000"
     borderopacity="0.25"
     inkscape:showpageshadow="2"
     inkscape:pageopacity="0.0"
     inkscape:pagecheckerboard="0"
     inkscape:deskcolor="#d1d1d1"
     inkscape:zoom="4.295019"
     inkscape:cx="40.279217"
     inkscape:cy="56.344338"
     inkscape:window-width="1920"
     inkscape:window-height="1050"
     inkscape:window-x="0"
     inkscape:window-y="30"
     inkscape:window-maximized="0"
     inkscape:current-layer="svg2" />
  <path
     d="M 63.81395,9.1053998 47.44295,22.1324 c -0.46484,0.36719 -1.0586,0.43359 -1.5898,0.17969 -0.53125,-0.25781 -0.85156,-0.76172 -0.85156,-1.3555 v -6.7695 c -14.258,0 -25.816,11.559 -25.816,25.816 0,6.6797 2.5352,12.77 6.6992,17.352 0.44922,0.49609 0.65234,1.0898 0.59766,1.7539 -0.05469,0.66406 -0.34766,1.2188 -0.87109,1.6367 l -6.1562,4.8984 c -0.97266,0.77344 -2.375,0.64844 -3.1992,-0.28125 -5.9688,-6.7578 -9.5898,-15.637 -9.5898,-25.359 0,-21.168 17.16,-38.3320002 38.332,-38.3320002 v -6.7695 c 0,-0.58984 0.31641,-1.0977 0.85156,-1.3555 0.53125,-0.25781 1.1289,-0.19141 1.5898,0.17969 l 16.371,13.027 c 0.37109,0.29688 0.56641,0.70312 0.56641,1.1758 0,0.47266 -0.19531,0.88281 -0.56641,1.1758 z M 64.39207,19.2574 c -0.52344,0.41406 -0.81641,0.96875 -0.87109,1.6367 -0.05469,0.66406 0.14844,1.2617 0.59766,1.7539 4.1641,4.5859 6.6992,10.672 6.6992,17.352 0,14.258 -11.559,25.816 -25.816,25.816 v -6.7695 c 0,-0.58984 -0.31641,-1.0977 -0.85156,-1.3555 -0.53125,-0.25781 -1.1289,-0.19141 -1.5898,0.17969 l -16.371,13.027 c -0.37109,0.29687 -0.56641,0.70312 -0.56641,1.1758 0,0.47266 0.19531,0.88281 0.56641,1.1758 l 16.371,13.027 c 0.46484,0.36719 1.0586,0.43359 1.5898,0.17969 0.53125,-0.25781 0.85156,-0.76172 0.85156,-1.3555 v -6.7695 c 21.168,0 38.332,-17.16 38.332,-38.332 0,-9.7227 -3.6211,-18.602 -9.5898,-25.359 -0.82031,-0.92969 -2.2266,-1.0547 -3.1992,-0.28125 l -6.1562,4.8984 z"
     fill-rule="evenodd"
     id="path1"
     style="fill:#ffffff;fill-opacity:1;stroke:none;stroke-opacity:1" />
</svg>
