<?xml version="1.0" encoding="UTF-8" standalone="no"?>
<svg
   version="1.1"
   viewBox="-5 -10 100 100"
   id="svg3"
   sodipodi:docname="music-album.svg"
   width="100"
   height="100"
   inkscape:version="1.4 (e7c3feb100, 2024-10-09)"
   xmlns:inkscape="http://www.inkscape.org/namespaces/inkscape"
   xmlns:sodipodi="http://sodipodi.sourceforge.net/DTD/sodipodi-0.dtd"
   xmlns="http://www.w3.org/2000/svg"
   xmlns:svg="http://www.w3.org/2000/svg">
  <defs
     id="defs3" />
  <sodipodi:namedview
     id="namedview3"
     pagecolor="#ffffff"
     bordercolor="#000000"
     borderopacity="0.25"
     inkscape:showpageshadow="2"
     inkscape:pageopacity="0.0"
     inkscape:pagecheckerboard="0"
     inkscape:deskcolor="#d1d1d1"
     inkscape:zoom="6.4444444"
     inkscape:cx="55.008621"
     inkscape:cy="55.086207"
     inkscape:window-width="1920"
     inkscape:window-height="1050"
     inkscape:window-x="0"
     inkscape:window-y="30"
     inkscape:window-maximized="0"
     inkscape:current-layer="svg3" />
  <path
     d="m 22.3435,2.5 c -2.5703,0 -4.6875,2.1172 -4.6875,4.6875 v 56.25 c 0,2.5703 2.1172,4.6875 4.6875,4.6875 h 54.688 c 2.5703,0 4.6875,-2.1172 4.6875,-4.6875 V 7.1875 C 81.719,4.6172 79.6018,2.5 77.0315,2.5 Z m 29.465,9.3984 c 0.36328,-0.0625 0.73438,0.0039 1.0508,0.1875 l 14.859,8.5781 c 0.74609,0.43359 1.0039,1.3867 0.57031,2.1328 -0.42969,0.74609 -1.3828,1.0039 -2.1328,0.57422 l -12.516,-7.2266 v 30.105 c -0.0078,0.12109 -0.03125,0.23828 -0.06641,0.35156 0.04297,0.39844 0.07031,0.80078 0.07031,1.2109 0,6.0234 -4.9141,10.938 -10.938,10.938 -6.0234,0 -10.938,-4.9141 -10.938,-10.938 0,-6.0239 4.9141,-10.938 10.938,-10.938 3.0547,0 5.8242,1.2656 7.8125,3.3008 l -0.0039,-26.738 c 0.0039,-0.55859 0.30078,-1.0742 0.78125,-1.3516 0.16016,-0.08984 0.33203,-0.15625 0.51172,-0.1875 z"
     fill-rule="evenodd"
     id="path1"
     style="fill:#ffffff;fill-opacity:1" />
  <path
     d="m 9.8435,10.312 c -0.86328,0 -1.5625,0.69922 -1.5625,1.5625 v 60.938 c 0,2.5703 2.1172,4.6875 4.6875,4.6875 h 60.938 c 0.41406,0 0.8125,-0.16406 1.1055,-0.45703 0.293,-0.29297 0.45703,-0.69141 0.45703,-1.1055 0,-0.41409 -0.16406,-0.8125 -0.45703,-1.1055 -0.29297,-0.293 -0.69141,-0.45703 -1.1055,-0.45703 h -60.938 c -0.88281,0 -1.5625,-0.67969 -1.5625,-1.5625 v -60.938 c 0,-0.41406 -0.16406,-0.8125 -0.45703,-1.1055 -0.29297,-0.293 -0.69141,-0.45703 -1.1055,-0.45703 z"
     fill-rule="evenodd"
     id="path2"
     style="fill:#ffffff;fill-opacity:1" />
</svg>
