<?xml version="1.0" encoding="UTF-8" standalone="no"?>
<svg
   viewBox="0,0,256,256"
   width="100px"
   height="100px"
   fill-rule="nonzero"
   version="1.1"
   id="svg2"
   sodipodi:docname="notification.svg"
   xml:space="preserve"
   inkscape:version="1.3.2 (091e20ef0f, 2023-11-25, custom)"
   xmlns:inkscape="http://www.inkscape.org/namespaces/inkscape"
   xmlns:sodipodi="http://sodipodi.sourceforge.net/DTD/sodipodi-0.dtd"
   xmlns="http://www.w3.org/2000/svg"
   xmlns:svg="http://www.w3.org/2000/svg"><defs
     id="defs2" /><sodipodi:namedview
     id="namedview2"
     pagecolor="#000000"
     bordercolor="#000000"
     borderopacity="0.24705882"
     inkscape:showpageshadow="2"
     inkscape:pageopacity="0.0"
     inkscape:pagecheckerboard="0"
     inkscape:deskcolor="#d1d1d1"
     inkscape:zoom="5.9679812"
     inkscape:cx="40.884847"
     inkscape:cy="47.084598"
     inkscape:window-width="1920"
     inkscape:window-height="1050"
     inkscape:window-x="0"
     inkscape:window-y="30"
     inkscape:window-maximized="0"
     inkscape:current-layer="svg2" /><path
     style="fill:#ffffff;fill-opacity:1;stroke:#ffffff;stroke-width:6.4;stroke-dasharray:none;stroke-opacity:1"
     d="M 127.65206,235.84299 127.09602,235.72104 112.97591,221.64098 98.855805,207.56092 66.68543,207.42191 34.515056,207.2829 V 113.72886 20.174823 l 93.172124,-0.06992 93.17213,-0.06991 0.31282,0.376918 0.31281,0.376917 -0.0699,93.247032 -0.0699,93.24704 -32.14485,0.0707 -32.14485,0.0707 -13.19122,13.13532 -13.19122,13.13533 -1.23244,1.13503 -1.23243,1.13503 z m 11.34678,-34.67655 10.7284,-10.70381 h 27.08674 27.08674 l 0.31556,-0.38023 0.31556,-0.38022 -10e-4,-75.97506 -0.001,-75.975061 -0.31453,-0.378985 -0.31453,-0.378985 -76.21278,0.07001 -76.212778,0.07 -0.07001,76.441351 -0.07001,76.44135 0.238624,0.23862 0.238623,0.23862 27.024243,-0.0231 27.024248,-0.0231 1.82487,1.74507 1.82487,1.74507 8.93212,8.96006 8.93213,8.96005 0.4482,0.006 0.4482,0.006 z"
     id="path2"
     sodipodi:nodetypes="cccccccccccccccccccccccccccccccccccccccccccccc" /><rect
     style="fill:#ffffff;stroke:#ffffff;stroke-width:4.62124;stroke-dasharray:none;stroke-opacity:1"
     id="rect1"
     width="17.5"
     height="17.5"
     x="76.1698"
     y="67.674171"
     ry="0" /><rect
     style="fill:#ffffff;stroke:#ffffff;stroke-width:4.62124;stroke-dasharray:none;stroke-opacity:1"
     id="rect1-6"
     width="70"
     height="17.5"
     x="109.8302"
     y="67.674171"
     ry="0" /><rect
     style="fill:#ffffff;stroke:#ffffff;stroke-width:4.62124;stroke-dasharray:none;stroke-opacity:1"
     id="rect1-7"
     width="17.5"
     height="17.5"
     x="76.1698"
     y="103.88998"
     ry="0" /><rect
     style="fill:#ffffff;stroke:#ffffff;stroke-width:4.62124;stroke-dasharray:none;stroke-opacity:1"
     id="rect1-6-5"
     width="70"
     height="17.5"
     x="109.8302"
     y="103.88998"
     ry="0" /><rect
     style="fill:#ffffff;stroke:#ffffff;stroke-width:4.62124;stroke-dasharray:none;stroke-opacity:1"
     id="rect1-7-3"
     width="17.5"
     height="17.5"
     x="76.169815"
     y="140.10583"
     ry="0" /><rect
     style="fill:#ffffff;stroke:#ffffff;stroke-width:4.62124;stroke-dasharray:none;stroke-opacity:1"
     id="rect1-6-5-5"
     width="70"
     height="17.5"
     x="109.8302"
     y="140.10583"
     ry="0" /></svg>
