<?xml version="1.0" encoding="UTF-8" standalone="no"?>
<svg
   xml:space="preserve"
   version="1.1"
   style="image-rendering:optimizeQuality;shape-rendering:geometricPrecision;text-rendering:geometricPrecision"
   viewBox="0 0 100 99.999999"
   x="0px"
   y="0px"
   fill-rule="evenodd"
   clip-rule="evenodd"
   id="svg2"
   sodipodi:docname="noun-ram-5988981.svg"
   width="100"
   height="100"
   inkscape:version="1.4 (e7c3feb100, 2024-10-09)"
   xmlns:inkscape="http://www.inkscape.org/namespaces/inkscape"
   xmlns:sodipodi="http://sodipodi.sourceforge.net/DTD/sodipodi-0.dtd"
   xmlns="http://www.w3.org/2000/svg"
   xmlns:svg="http://www.w3.org/2000/svg"><sodipodi:namedview
     id="namedview2"
     pagecolor="#ffffff"
     bordercolor="#000000"
     borderopacity="0.25"
     inkscape:showpageshadow="2"
     inkscape:pageopacity="0.0"
     inkscape:pagecheckerboard="0"
     inkscape:deskcolor="#d1d1d1"
     inkscape:zoom="8.0640805"
     inkscape:cx="52.082813"
     inkscape:cy="51.710793"
     inkscape:window-width="1920"
     inkscape:window-height="1050"
     inkscape:window-x="0"
     inkscape:window-y="30"
     inkscape:window-maximized="0"
     inkscape:current-layer="svg2" /><defs
     id="defs1"><style
       type="text/css"
       id="style1">
   
    .fil0 {fill:black;fill-rule:nonzero}
   
  </style></defs><g
     id="g1"
     transform="matrix(0.24274987,0,0,0.24274201,9.230879,9.2234023)"
     style="stroke:none;fill:#ffffff;fill-opacity:1"><path
       class="fil0"
       d="m 77.89,53.42 h 8.73 V 17.18 c 0,-2.76 2.24,-5 5,-5 2.76,0 5,2.24 5,5 v 36.24 h 27.52 V 17.18 c 0,-2.76 2.24,-5 5,-5 2.76,0 5,2.24 5,5 v 36.24 h 27.52 V 17.18 c 0,-2.76 2.24,-5 5,-5 2.76,0 5,2.24 5,5 v 36.24 h 27.52 V 17.18 c 0,-2.76 2.24,-5 5,-5 2.76,0 5,2.24 5,5 V 53.42 H 236.7 V 17.18 c 0,-2.76 2.24,-5 5,-5 2.76,0 5,2.24 5,5 v 36.24 h 8.74 c 6.72,0 12.84,2.76 17.28,7.2 4.44,4.42 7.19,10.54 7.19,17.28 v 8.73 h 36.24 c 2.76,0 5,2.24 5,5 0,2.76 -2.24,5 -5,5 h -36.24 v 27.52 h 36.24 c 2.76,0 5,2.24 5,5 0,2.76 -2.24,5 -5,5 h -36.24 v 27.52 h 36.24 c 2.76,0 5,2.24 5,5 0,2.76 -2.24,5 -5,5 h -36.24 v 27.52 h 36.24 c 2.76,0 5,2.24 5,5 0,2.76 -2.24,5 -5,5 h -36.24 v 27.52 h 36.24 c 2.76,0 5,2.24 5,5 0,2.76 -2.24,5 -5,5 h -36.24 v 8.74 c 0,6.73 -2.75,12.85 -7.18,17.28 -4.43,4.43 -10.55,7.18 -17.28,7.18 h -8.74 v 36.24 c 0,2.76 -2.24,5 -5,5 -2.76,0 -5,-2.24 -5,-5 v -36.24 h -27.52 v 36.24 c 0,2.76 -2.24,5 -5,5 -2.76,0 -5,-2.24 -5,-5 v -36.24 h -27.52 v 36.24 c 0,2.76 -2.24,5 -5,5 -2.76,0 -5,-2.24 -5,-5 v -36.24 h -27.52 v 36.24 c 0,2.76 -2.24,5 -5,5 -2.76,0 -5,-2.24 -5,-5 V 279.91 H 96.63 v 36.24 c 0,2.76 -2.24,5 -5,5 -2.76,0 -5,-2.24 -5,-5 V 279.91 H 77.9 c -6.73,0 -12.86,-2.75 -17.29,-7.18 l -0.28,-0.31 c -4.27,-4.41 -6.9,-10.4 -6.9,-16.97 v -8.74 H 17.19 c -2.76,0 -5,-2.24 -5,-5 0,-2.76 2.24,-5 5,-5 H 53.43 V 209.19 H 17.19 c -2.76,0 -5,-2.24 -5,-5 0,-2.76 2.24,-5 5,-5 H 53.43 V 171.67 H 17.19 c -2.76,0 -5,-2.24 -5,-5 0,-2.76 2.24,-5 5,-5 H 53.43 V 134.15 H 17.19 c -2.76,0 -5,-2.24 -5,-5 0,-2.76 2.24,-5 5,-5 H 53.43 V 96.63 H 17.19 c -2.76,0 -5,-2.24 -5,-5 0,-2.76 2.24,-5 5,-5 H 53.43 V 77.9 c 0,-6.71 2.75,-12.83 7.2,-17.28 4.45,-4.44 10.57,-7.19 17.27,-7.19 z m 27.23,33.2 c -5.07,0 -9.7,2.08 -13.07,5.44 -3.35,3.35 -5.43,7.98 -5.43,13.05 V 228.2 c 0,5.09 2.08,9.73 5.44,13.07 3.35,3.35 7.98,5.43 13.05,5.43 H 228.2 c 5.09,0 9.73,-2.08 13.07,-5.43 3.34,-3.34 5.43,-7.98 5.43,-13.07 V 105.11 c 0,-4.93 -1.96,-9.42 -5.13,-12.75 l -0.3,-0.32 C 237.93,88.7 233.29,86.61 228.2,86.61 H 105.11 Z m 123.09,10 c 2.33,0 4.46,0.96 6.1,2.59 1.52,1.62 2.39,3.67 2.39,5.9 V 228.2 c 0,2.33 -0.96,4.46 -2.5,6 -1.54,1.54 -3.67,2.5 -6,2.5 H 105.11 c -2.34,0 -4.47,-0.95 -6,-2.5 -1.54,-1.54 -2.5,-3.67 -2.5,-6 V 105.11 c 0,-2.34 0.95,-4.47 2.49,-6.01 1.54,-1.54 3.67,-2.49 6.01,-2.49 H 228.2 Z"
       id="path1"
       style="stroke:none;fill:#ffffff;fill-opacity:1" /></g></svg>
