<?xml version="1.0" encoding="UTF-8" standalone="no"?>
<svg
   version="1.1"
   viewBox="-5 -10 100 100"
   id="svg2"
   sodipodi:docname="shuffle.svg"
   width="100"
   height="100"
   inkscape:version="1.4 (e7c3feb100, 2024-10-09)"
   xmlns:inkscape="http://www.inkscape.org/namespaces/inkscape"
   xmlns:sodipodi="http://sodipodi.sourceforge.net/DTD/sodipodi-0.dtd"
   xmlns="http://www.w3.org/2000/svg"
   xmlns:svg="http://www.w3.org/2000/svg">
  <defs
     id="defs2" />
  <sodipodi:namedview
     id="namedview2"
     pagecolor="#ffffff"
     bordercolor="#000000"
     borderopacity="0.25"
     inkscape:showpageshadow="2"
     inkscape:pageopacity="0.0"
     inkscape:pagecheckerboard="0"
     inkscape:deskcolor="#d1d1d1"
     inkscape:zoom="6.2222222"
     inkscape:cx="54.964286"
     inkscape:cy="67.5"
     inkscape:window-width="1920"
     inkscape:window-height="1050"
     inkscape:window-x="0"
     inkscape:window-y="30"
     inkscape:window-maximized="0"
     inkscape:current-layer="svg2" />
  <path
     d="m 91.02078,18.652001 -16.922,13.465 c -0.47656,0.38281 -1.0938,0.44922 -1.6445,0.18359 -0.55078,-0.26563 -0.87891,-0.78906 -0.87891,-1.3984 v -6.9961 h -9.4062 c -6.6328,0 -12.324,3.2852 -15.641,9.0312 l -12.426,21.523 c -5.3477,9.2617 -14.531,14.566 -25.227,14.566 l -8.1562,-0.0039 c -1.2852,0 -2.3281,-1.0469 -2.3281,-2.3281 v -8.2734 c 0,-1.2852 1.0469,-2.3281 2.3281,-2.3281 h 7.0781 c 6.6328,0 12.324,-3.2852 15.641,-9.0312 l 12.426,-21.523 c 5.3477,-9.2617 14.531,-14.566 25.227,-14.566 h 10.484 V 3.9764907 c 0,-0.60938 0.32812,-1.1328 0.87891,-1.3984 0.55079,-0.2656 1.1641,-0.19531 1.6445,0.18359 l 16.922,13.4650003 c 0.38281,0.30469 0.58594,0.72656 0.58594,1.2148 0,0.48828 -0.20312,0.91016 -0.58594,1.2148 z m -82.145,-7.6836 h -8.1562 c -1.2852,0 -2.3281,1.0469 -2.3281,2.3281 v 8.2734 c 0,1.2852 1.0469,2.3281 2.3281,2.3281 h 7.0781 c 6.6328,0 12.324,3.2852 15.641,9.0312 l 0.76562,1.3281 6.6953,-11.598 c 0.19141,-0.32812 0.38672,-0.65625 0.58594,-0.97656 -5.4805,-6.8711 -13.496,-10.723 -22.609,-10.723 z m 29.609,47.336 c 5.4805,6.8711 13.496,10.723 22.609,10.723 h 10.484 v 6.9961 c 0,0.60938 0.32812,1.1328 0.87891,1.3984 0.55078,0.26562 1.1641,0.19531 1.6445,-0.18359 l 16.922,-13.465 c 0.38281,-0.30469 0.58594,-0.72656 0.58594,-1.2148 0,-0.48824 -0.20312,-0.91016 -0.58594,-1.2148 l -16.922,-13.465 c -0.47656,-0.38281 -1.0938,-0.44922 -1.6445,-0.18359 -0.55078,0.26562 -0.87891,0.78906 -0.87891,1.3984 v 6.9961 h -9.4062 c -6.6328,0 -12.324,-3.2852 -15.641,-9.0312 l -0.76562,-1.3281 -6.6953,11.598 c -0.19141,0.32812 -0.38672,0.65625 -0.58594,0.97656 z"
     fill-rule="evenodd"
     id="path1"
     style="fill:#ffffff;fill-opacity:1" />
</svg>
