<?xml version="1.0" encoding="UTF-8" standalone="no"?>
<svg
   version="1.1"
   x="0px"
   y="0px"
   viewBox="0 0 100 100"
   xml:space="preserve"
   id="svg2"
   sodipodi:docname="noun-hard-drive-6592945.svg"
   width="100"
   height="100"
   inkscape:version="1.4 (e7c3feb100, 2024-10-09)"
   xmlns:inkscape="http://www.inkscape.org/namespaces/inkscape"
   xmlns:sodipodi="http://sodipodi.sourceforge.net/DTD/sodipodi-0.dtd"
   xmlns="http://www.w3.org/2000/svg"
   xmlns:svg="http://www.w3.org/2000/svg"><defs
     id="defs2" /><sodipodi:namedview
     id="namedview2"
     pagecolor="#ffffff"
     bordercolor="#000000"
     borderopacity="0.25"
     inkscape:showpageshadow="2"
     inkscape:pageopacity="0.0"
     inkscape:pagecheckerboard="0"
     inkscape:deskcolor="#d1d1d1"
     inkscape:zoom="3.36"
     inkscape:cx="13.541667"
     inkscape:cy="22.916667"
     inkscape:window-width="1920"
     inkscape:window-height="1050"
     inkscape:window-x="0"
     inkscape:window-y="30"
     inkscape:window-maximized="0"
     inkscape:current-layer="svg2" /><path
     d="M 56.886986,91.849157 V 92.5 H 42.042675 v -0.650843 c 0,-0.749371 0.626078,-1.360733 1.393548,-1.360733 h 12.067203 c 0.767467,0 1.38356,0.611362 1.38356,1.360733 z M 15,90.498229 C 15,91.602635 15.918845,92.5 17.039724,92.5 h 1.464305 V 83.546391 H 15 Z M 20.523642,92.5 h 3.241453 v -8.953609 h -3.241453 z m 5.261084,0 h 3.241458 v -8.953609 h -3.241458 z m 5.261081,-8.953609 H 85 v 6.951838 C 85,91.602635 84.091267,92.5 82.96028,92.5 H 58.906612 c 0.252945,-2.046845 -1.222818,-4.002514 -3.403186,-3.98374 H 43.436223 C 41.242912,88.4979 39.772943,90.450987 40.023053,92.5 h -8.977246 z m 44.290467,5.462912 h 4.079555 c 1.327354,-0.02485 1.325255,-1.947724 0,-1.972157 h -4.079555 c -1.327349,0.02468 -1.325376,1.947723 0,1.972157 z m -11.087841,0 h 4.079681 c 1.327349,-0.02485 1.325256,-1.947724 0,-1.972157 0,0 -4.079681,0 -4.079554,0 -1.327476,0.02474 -1.325382,1.947664 -1.27e-4,1.972157 z M 85,9.5904817 V 81.574226 H 15 V 9.5904817 C 15,8.4367862 15.918845,7.5 17.039724,7.5 H 82.960279 C 84.091267,7.5 85,8.4367862 85,9.5904817 Z M 19.675314,13.574278 c 1.923972,-0.03268 1.924339,-2.826731 0,-2.859652 -1.936299,0.03569 -1.936547,2.823662 0,2.859652 z m 60.740223,8.647871 c 0,-0.256391 -0.100958,-0.51272 -0.282655,-0.690268 L 69.045042,10.566691 C 68.853114,10.379332 68.590551,10.270878 68.318005,10.270878 H 49.46477 c -17.065724,0 -30.960741,13.558583 -30.960741,30.233209 v 36.691949 c 0,0.542334 0.454355,0.986078 1.009801,0.986078 h 59.891896 c 0.56543,0 1.009812,-0.443744 1.009812,-0.986078 z M 79.870319,10.714626 c -1.924214,0.03268 -1.924461,2.826672 0,2.859652 1.923971,-0.03273 1.924212,-2.82667 0,-2.859652 z m -11.966374,1.52841 10.491962,10.383438 V 76.209959 H 20.523642 V 40.504088 c 0,-15.580094 12.986049,-28.261052 28.941128,-28.261052 z M 28.541493,50.019711 h -3.009219 c -1.327108,0.02468 -1.325629,1.947601 0,1.972158 h 3.009219 c 0.555447,0 1.009813,-0.443749 1.009813,-0.98608 0,-0.542332 -0.454366,-0.986078 -1.009813,-0.986078 z m -3.009219,3.609081 c -1.327475,0.02474 -1.325132,1.947785 0,1.972159 h 4.503722 c 1.327474,-0.02479 1.325131,-1.947845 0,-1.972159 z m -1.009808,-5.956014 c 0.02551,1.297902 1.995213,1.292182 2.01962,6.2e-5 0,0 0,-10.35383 0,-10.353767 -0.02552,-1.297901 -1.99522,-1.292245 -2.01962,-6.3e-5 0,0 0,10.35383 0,10.353768 z m 21.438286,21.565599 c 0,-0.542334 -0.454367,-0.986078 -1.009812,-0.986078 -5.493318,0 -9.956733,-4.368326 -9.956733,-9.732593 0,-0.542332 -0.45449,-0.986078 -1.009811,-0.986078 h -6.715275 c -1.514717,0 -2.746655,1.203045 -2.746655,2.682163 v 10.245314 c 0,1.47912 1.231938,2.682163 2.746655,2.682163 H 44.95094 c 0.555445,0 1.009812,-0.443749 1.009812,-0.986078 z m 23.417483,-1.27202 c 0,-0.542335 -0.45437,-0.986078 -1.009811,-0.986078 H 53.382847 c -0.555325,0 -1.009812,0.443743 -1.009812,0.986078 v 4.190833 c 0,0.542329 0.454487,0.986078 1.009812,0.986078 h 14.985577 c 0.555441,0 1.009811,-0.443749 1.009811,-0.986078 z m 0,-5.393883 c 0,-0.542328 -0.45437,-0.986078 -1.009811,-0.986078 h -7.492729 c -0.565553,0 -1.009811,0.44375 -1.009811,0.986078 0,0.542394 0.444258,0.986078 1.009811,0.986078 h 7.492729 c 0.555441,0 1.009811,-0.443684 1.009811,-0.986078 z m 5.937821,-7.296886 c -0.004,-1.296515 -2.023568,-1.285983 -2.019624,-6.2e-5 0,0 0,16.881664 0,16.881605 0.01874,1.299585 1.996205,1.291219 2.019624,5.9e-5 0,0 0,-16.881664 0,-16.881602 z M 29.864407,37.31901 c 0,8.608511 4.978303,16.28017 12.824566,19.968096 -0.729502,0.465416 -5.05806,0.167437 -5.937704,0.246522 -0.55532,0 -1.009811,0.443746 -1.009687,0.986015 -0.09664,6.246472 7.101228,10.295933 11.350154,4.723418 l 2.635594,-3.924635 c 0.959273,0.118325 1.928778,0.187358 2.867956,0.187358 12.531679,0 22.72077,-9.949501 22.72077,-22.186594 C 74.073022,7.8760394 31.115824,7.8770019 29.864407,37.31901 Z m 14.076722,32.866024 v 0.986078 H 27.269121 c -0.393842,0 -0.727035,-0.31555 -0.727035,-0.710007 V 60.215791 c 0,-0.394453 0.333193,-0.710007 0.727035,-0.710007 h 5.745771 c 0.484691,5.669953 5.119816,10.19608 10.926237,10.67925 z M 29.490658,66.980279 c -1.684951,0.0295 -1.685322,2.474827 0,2.504619 1.685074,-0.0295 1.685321,-2.474952 0,-2.504619 z m 0,-5.32485 c -1.685076,0.0295 -1.685322,2.474948 0,2.504681 1.685074,-0.02943 1.685321,-2.475011 0,-2.504681 z M 55.695353,46.814955 c 0,0 -10.290047,15.343384 -10.289922,15.343325 -2.707339,3.530177 -7.047362,1.203102 -7.563607,-2.652496 0,0 3.71616,0 3.71616,-5.9e-5 1.462454,0.0133 2.843427,-0.689067 3.776689,-1.784741 0,-0.0099 0.01011,-0.0099 0.01011,-0.0099 L 45.92032,57.099722 Z M 41.911396,60.501733 c -1.685077,0.0295 -1.685322,2.474886 0,2.504619 1.685075,-0.0295 1.685199,-2.474886 0,-2.504619 z M 54.392658,71.171112 H 67.358613 V 68.952435 H 54.392658 Z M 52.595286,17.094527 c 11.410802,0 20.701146,9.081806 20.701146,20.224425 0.05349,11.716968 -10.386073,21.11168 -22.327051,20.155512 l 6.563777,-9.801623 c 0.212022,-0.325363 0.32321,-0.690268 0.32321,-1.045183 0.04018,-1.695605 -2.277501,-2.603562 -3.433387,-1.311563 L 44.345077,55.86715 C 23.915611,46.963072 30.192299,17.391421 52.595286,17.094527 Z m -0.01,16.990177 c -4.365539,0.115437 -4.366277,6.352516 -1.23e-4,6.468673 4.379223,-0.112967 4.38021,-6.355102 1.23e-4,-6.468673 z m -8.644172,3.234306 c 0,4.654324 3.877767,8.440834 8.644049,8.440834 1.321186,0.0046 1.323655,-1.970836 0,-1.972159 -3.655637,0 -6.624426,-2.899073 -6.624426,-6.468554 0.309897,-8.578656 12.951036,-8.568725 13.258839,-1.21e-4 0,1.281893 -0.383737,2.524359 -1.110768,3.579411 -0.716806,1.080631 0.936588,2.162045 1.686304,1.094593 3.851022,-5.425538 -0.438585,-13.251876 -7.209949,-13.124704 -4.766282,-1e-6 -8.644049,3.786568 -8.644049,8.4507 z m 7.351461,-5.9e-5 c 0.03699,1.661781 2.560277,1.652211 2.595162,5.9e-5 -0.02921,-1.653955 -2.563358,-1.663945 -2.595162,-5.9e-5 z"
     id="path1"
     style="stroke-width:0.868856;fill:#ffffff;fill-opacity:1" /></svg>
