<?xml version="1.0" encoding="UTF-8" standalone="no"?>
<svg
   version="1.1"
   x="0px"
   y="0px"
   viewBox="0 0 100 100"
   enable-background="new 0 0 100 100"
   xml:space="preserve"
   id="svg5"
   sodipodi:docname="noun-trash-3465739.svg"
   width="100"
   height="100"
   inkscape:version="1.4 (e7c3feb100, 2024-10-09)"
   xmlns:inkscape="http://www.inkscape.org/namespaces/inkscape"
   xmlns:sodipodi="http://sodipodi.sourceforge.net/DTD/sodipodi-0.dtd"
   xmlns="http://www.w3.org/2000/svg"
   xmlns:svg="http://www.w3.org/2000/svg"><defs
     id="defs5" /><sodipodi:namedview
     id="namedview5"
     pagecolor="#ffffff"
     bordercolor="#000000"
     borderopacity="0.25"
     inkscape:showpageshadow="2"
     inkscape:pageopacity="0.0"
     inkscape:pagecheckerboard="0"
     inkscape:deskcolor="#d1d1d1"
     inkscape:zoom="6.712"
     inkscape:cx="50.059595"
     inkscape:cy="50.581049"
     inkscape:window-width="1920"
     inkscape:window-height="1050"
     inkscape:window-x="0"
     inkscape:window-y="30"
     inkscape:window-maximized="0"
     inkscape:current-layer="svg5" /><g
     id="g4"
     style="fill:#ffffff;fill-opacity:1"><path
       d="m 50,69 c 1.104,0 2,-0.896 2,-2 V 43.945 c 0,-1.104 -0.896,-2 -2,-2 -1.104,0 -2,0.896 -2,2 V 67 c 0,1.104 0.896,2 2,2 z"
       id="path1"
       style="fill:#ffffff;fill-opacity:1" /><path
       d="m 57.958,68.935 c 0.069,0.007 0.138,0.01 0.205,0.01 1.014,0 1.883,-0.767 1.987,-1.797 l 2.339,-22.945 c 0.112,-1.099 -0.688,-2.08 -1.786,-2.192 -1.113,-0.108 -2.081,0.688 -2.192,1.787 l -2.339,22.945 c -0.112,1.098 0.687,2.079 1.786,2.192 z"
       id="path2"
       style="fill:#ffffff;fill-opacity:1" /><path
       d="m 41.498,68.967 c 0.056,0 0.111,-0.002 0.168,-0.007 1.101,-0.092 1.919,-1.058 1.827,-2.159 L 41.58,43.813 c -0.092,-1.101 -1.055,-1.914 -2.159,-1.827 -1.101,0.092 -1.919,1.058 -1.827,2.159 l 1.913,22.988 c 0.087,1.044 0.961,1.834 1.991,1.834 z"
       id="path3"
       style="fill:#ffffff;fill-opacity:1" /><path
       d="m 25.5,34 h 3.629 l 2.876,43.133 C 32.074,78.184 32.947,79 34,79 h 32 c 1.053,0 1.926,-0.816 1.995,-1.867 L 70.871,34 H 74.5 c 1.104,0 2,-0.896 2,-2 0,-1.104 -0.896,-2 -2,-2 H 69 62.942 L 60.398,22.368 C 60.125,21.551 59.361,21 58.5,21 h -17 c -0.861,0 -1.625,0.551 -1.897,1.368 L 37.058,30 H 31 25.5 c -1.104,0 -2,0.896 -2,2 0,1.104 0.896,2 2,2 z m 17.441,-9 h 14.117 l 1.667,5 H 41.274 Z M 38.5,34 h 23 0.02 5.343 L 64.13,75 H 35.871 L 33.138,34 Z"
       id="path4"
       style="fill:#ffffff;fill-opacity:1" /></g></svg>
