<?xml version="1.0" encoding="UTF-8" standalone="no"?>
<svg
   viewBox="0 0 100 100"
   version="1.1"
   x="0px"
   y="0px"
   id="svg3"
   sodipodi:docname="volume-full.svg"
   width="100"
   height="100"
   inkscape:version="1.4 (e7c3feb100, 2024-10-09)"
   xmlns:inkscape="http://www.inkscape.org/namespaces/inkscape"
   xmlns:sodipodi="http://sodipodi.sourceforge.net/DTD/sodipodi-0.dtd"
   xmlns="http://www.w3.org/2000/svg"
   xmlns:svg="http://www.w3.org/2000/svg"
   xmlns:rdf="http://www.w3.org/1999/02/22-rdf-syntax-ns#"
   xmlns:cc="http://creativecommons.org/ns#"
   xmlns:dc="http://purl.org/dc/elements/1.1/">
  <defs
     id="defs3" />
  <sodipodi:namedview
     id="namedview3"
     pagecolor="#ffffff"
     bordercolor="#000000"
     borderopacity="0.25"
     inkscape:showpageshadow="2"
     inkscape:pageopacity="0.0"
     inkscape:pagecheckerboard="0"
     inkscape:deskcolor="#d1d1d1"
     inkscape:zoom="7.25"
     inkscape:cx="47.931034"
     inkscape:cy="60"
     inkscape:window-width="1920"
     inkscape:window-height="1050"
     inkscape:window-x="0"
     inkscape:window-y="30"
     inkscape:window-maximized="0"
     inkscape:current-layer="svg3" />
  <title
     id="title1">Full Volume</title>
  <desc
     id="desc1">Created with Sketch.</desc>
  <g
     stroke="none"
     stroke-width="1"
     fill="none"
     fill-rule="evenodd"
     id="g2"
     transform="translate(2,1.9287477)"
     style="fill:#ffffff;fill-opacity:1">
    <g
       fill="#000000"
       id="g1"
       style="fill:#ffffff;fill-opacity:1">
      <path
         d="M 24,38.071498 H 17.99923 C 15.792468,38.071498 14,39.862014 14,42.070728 v 12.00154 c 0,2.206762 1.790516,3.99923 3.99923,3.99923 H 24 L 41.176907,75.248405 C 42.733738,76.805236 44,76.277702 44,74.064942 V 22.078054 C 44,19.867179 42.736058,19.33544 41.176907,20.894591 Z M 54,72 C 67.254834,72 78,61.254834 78,48 78,34.745166 67.254834,24 54,24 c -1.104569,0 -2,-0.895431 -2,-2 0,-1.10457 0.895431,-2 2,-2 15.463973,0 28,12.536027 28,28 0,15.463973 -12.536027,28 -28,28 -1.104569,0 -2,-0.895431 -2,-2 0,-1.104569 0.895431,-2 2,-2 z m 0,-9 c 8.284271,0 15,-6.715729 15,-15 0,-8.284271 -6.715729,-15 -15,-15 -1.104569,0 -2,-0.895431 -2,-2 0,-1.10457 0.895431,-2 2,-2 10.49341,0 19,8.50659 19,19 0,10.49341 -8.50659,19 -19,19 -1.104569,0 -2,-0.895431 -2,-2 0,-1.104569 0.895431,-2 2,-2 z m 0,-9 c 3.313708,0 6,-2.686292 6,-6 0,-3.313708 -2.686292,-6 -6,-6 -1.104569,0 -2,-0.895431 -2,-2 0,-1.104569 0.895431,-2 2,-2 5.522847,0 10,4.477153 10,10 0,5.522847 -4.477153,10 -10,10 -1.104569,0 -2,-0.895431 -2,-2 0,-1.104569 0.895431,-2 2,-2 z"
         id="path1"
         style="fill:#ffffff;fill-opacity:1" />
    </g>
  </g>
  <metadata
     id="metadata3">
    <rdf:RDF>
      <cc:Work
         rdf:about="">
        <dc:title>Full Volume</dc:title>
      </cc:Work>
    </rdf:RDF>
  </metadata>
</svg>
