<?xml version="1.0" encoding="UTF-8" standalone="no"?>
<!-- Created with Inkscape (http://www.inkscape.org/) -->

<svg
   width="100"
   height="100"
   viewBox="-2 -2 100 100"
   version="1.1"
   id="svg312"
   inkscape:version="1.2.2 (b0a8486541, 2022-12-01)"
   sodipodi:docname="gnome-translate.svg"
   xmlns:inkscape="http://www.inkscape.org/namespaces/inkscape"
   xmlns:sodipodi="http://sodipodi.sourceforge.net/DTD/sodipodi-0.dtd"
   xmlns="http://www.w3.org/2000/svg"
   xmlns:svg="http://www.w3.org/2000/svg">
  <sodipodi:namedview
     id="namedview314"
     pagecolor="#474747"
     bordercolor="#000000"
     borderopacity="0.25"
     inkscape:showpageshadow="false"
     inkscape:pageopacity="0"
     inkscape:pagecheckerboard="false"
     inkscape:deskcolor="#3b3b3b"
     inkscape:document-units="px"
     showgrid="false"
     showborder="true"
     borderlayer="true"
     inkscape:zoom="5.7452425"
     inkscape:cx="53.522545"
     inkscape:cy="44.819692"
     inkscape:window-width="1920"
     inkscape:window-height="1048"
     inkscape:window-x="0"
     inkscape:window-y="32"
     inkscape:window-maximized="0"
     inkscape:current-layer="layer1" />
  <defs
     id="defs309">
    <rect
       x="18.339203"
       y="3.3497372"
       width="24.443855"
       height="23.01112"
       id="rect784" />
    <rect
       x="16.985783"
       y="2.744813"
       width="27.840944"
       height="28.386583"
       id="rect772" />
  </defs>
  <g
     inkscape:label="Layer 1"
     inkscape:groupmode="layer"
     id="layer1"
     transform="translate(-2,-2)">
    <rect
       style="fill:#444444;stroke-width:2"
       id="rect623-6"
       width="60"
       height="60"
       x="6"
       y="34" />
    <path
       style="opacity:1;fill:#ffffff;stroke-width:0"
       d="m 28.818326,43.397126 c 1.660182,1.15106 3.193086,2.556682 4.598708,4.216866 l -2.490276,3.065804 c -1.532902,-1.91751 -3.129444,-3.514054 -4.792396,-4.792394 l 2.683964,-2.490276 m 0,12.075066 c 1.532902,1.148294 3.002164,2.426634 4.407786,3.832256 l -2.490274,3.256726 c -1.40839,-1.787464 -2.941292,-3.320366 -4.601476,-4.598706 l 2.681196,-2.490276 m 0.766452,13.22336 3.068572,2.108432 c -1.53567,5.237878 -3.771382,10.284836 -6.709908,15.14087 l -3.259494,-2.49304 c 2.938526,-4.728756 5.240646,-9.645666 6.90083,-14.756262 m 9.006494,-26.831328 3.641334,0.766452 c -0.25456,1.275574 -0.63917,2.490274 -1.148292,3.641334 h 14.947182 v 3.447648 H 39.548644 l -1.726592,2.874884 c -0.51189,1.02378 -1.34198,2.108432 -2.490274,3.259492 l -2.30212,-2.681196 c 2.426634,-2.938524 4.280504,-6.70714 5.556078,-11.308614 M 37.628364,53.748368 H 55.25951 c 0,3.959538 -0.06364,7.664514 -0.19092,11.114928 h 2.49304 v 3.450414 h -2.683962 c -0.257328,2.683962 -0.44825,5.301518 -0.57553,7.8582 h 2.874884 v 3.256726 h -3.256726 c -0.51189,4.471426 -2.302122,6.70714 -5.367926,6.70714 -0.766452,0 -1.851104,-0.12728 -3.256726,-0.381842 l -0.57553,-3.259494 c 1.660182,0.25733 2.938524,0.38461 3.832256,0.38461 0.893732,0 1.469262,-1.15106 1.72659,-3.450414 H 35.32901 c 0.51189,-3.450414 0.957374,-7.15539 1.341982,-11.114926 H 33.98703 v -3.450414 h 3.065804 c 0.257328,-3.577696 0.44825,-7.282672 0.57553,-11.114928 m 2.874884,11.114928 h 10.924006 c 0.12728,-2.683964 0.19092,-5.30152 0.19092,-7.858202 H 41.078778 c -0.12728,2.811244 -0.320968,5.431566 -0.57553,7.858202 m 4.792396,-6.898062 c 1.405622,0.893732 2.681196,1.914744 3.832256,3.065806 l -2.299354,2.874882 c -1.15106,-1.27834 -2.426634,-2.4294 -3.832256,-3.450414 l 2.299354,-2.49304 m 5.365158,18.209442 c 0.254562,-2.683964 0.44825,-5.304286 0.57553,-7.8582 H 40.312328 c -0.254562,2.811242 -0.57553,5.428798 -0.957372,7.8582 h 11.305846 m -5.940688,-6.900828 c 1.532902,0.893732 2.938524,1.917512 4.216866,3.065804 L 46.443938,75.21177 C 45.168364,73.806148 43.826382,72.594216 42.42076,71.570436 l 2.299354,-2.299354 M 24.595926,46.465698 V 76.553752 H 21.14551 v -3.259494 h -3.256726 v 4.983318 H 14.43837 V 46.462932 h 10.157556 m -6.707142,23.5746 H 21.14551 V 49.722424 h -3.256726 v 20.315108"
       id="path6" />
    <path
       style="fill:#a3a3a3;stroke-width:2"
       d="M 34,66 66,94 V 42 L 34,6 Z"
       id="path10" />
    <rect
       style="fill:#ffffff;stroke-width:2"
       id="rect623"
       width="60"
       height="60"
       x="34"
       y="6" />
    <path
       style="fill:#000000;stroke-width:2.2903"
       d="m 59.927836,39.146882 0.90009,-3.37133 c 1.010026,-3.655326 1.967372,-7.926746 2.865172,-11.804234 h 0.22445 c 0.957348,3.82252 1.967372,8.148908 2.979688,11.804234 l 0.842832,3.37133 h -7.812232 m 11.744686,15.17556 h 8.76729 L 68.974542,17.677558 H 59.027746 L 47.560188,54.322442 h 8.430614 l 2.24908,-8.71232 h 11.18356 l 2.24908,8.71232"
       id="path16" />
  </g>
</svg>
