<?xml version="1.0" encoding="UTF-8" standalone="no"?>
<!-- Created with Inkscape (http://www.inkscape.org/) -->

<svg
   version="1.1"
   id="svg1"
   width="472.61539"
   height="472.61539"
   viewBox="0 0 472.61539 472.61539"
   sodipodi:docname="music-album.svg"
   inkscape:version="1.3.2 (091e20ef0f, 2023-11-25, custom)"
   xmlns:inkscape="http://www.inkscape.org/namespaces/inkscape"
   xmlns:sodipodi="http://sodipodi.sourceforge.net/DTD/sodipodi-0.dtd"
   xmlns="http://www.w3.org/2000/svg"
   xmlns:svg="http://www.w3.org/2000/svg">
  <defs
     id="defs1" />
  <sodipodi:namedview
     id="namedview1"
     pagecolor="#ffffff"
     bordercolor="#000000"
     borderopacity="0.25"
     inkscape:showpageshadow="2"
     inkscape:pageopacity="0.0"
     inkscape:pagecheckerboard="0"
     inkscape:deskcolor="#d1d1d1"
     inkscape:zoom="1.2687411"
     inkscape:cx="209.26255"
     inkscape:cy="251.43034"
     inkscape:window-width="1920"
     inkscape:window-height="1050"
     inkscape:window-x="0"
     inkscape:window-y="30"
     inkscape:window-maximized="0"
     inkscape:current-layer="g1" />
  <g
     inkscape:groupmode="layer"
     inkscape:label="Image"
     id="g1">
    <path
       style="fill:#ffffff"
       d="m 231.90475,471.24499 c -31.17966,-8.78365 -33.48303,-50.03538 -4.29483,-76.91752 17.57229,-16.18396 41.8598,-21.31129 57.44284,-12.12675 1.67902,0.98961 3.23672,1.79928 3.46154,1.79928 0.22483,0 0.40878,-31.99765 0.40878,-71.10589 0,-56.06974 0.24399,-71.18503 1.15384,-71.48014 0.63462,-0.20583 40.2,-10.79975 87.92308,-23.54204 47.72308,-12.74229 87.49616,-23.38884 88.38462,-23.65899 1.93511,-0.58841 2.54936,186.00751 0.64774,196.77138 -9.28865,52.57713 -83.37979,72.34957 -93.19008,24.86931 -8.10091,-39.20713 41.3667,-80.54417 75.90219,-63.42679 l 5.33246,2.64301 V 300.7657 c 0,-29.86729 -0.14548,-54.30416 -0.32329,-54.30416 -0.1778,0 -33.52462,8.89985 -74.10403,19.77745 -40.57941,10.8776 -74.91086,20.06109 -76.2921,20.40776 l -2.51135,0.63031 -0.0136,65.20763 c -0.0151,72.17772 0.0471,71.31111 -5.98116,83.32282 -12.89849,25.70112 -41.75079,41.69028 -63.9466,35.43748 z m -55.34786,-27.2311 C 14.787933,403.1224 -49.039415,209.49771 57.024975,81.405554 153.39713,-34.981456 335.15483,-24.345076 418.80618,102.57683 c 15.56605,23.61794 36.52415,77.0573 30.87648,78.72944 -7.95626,2.35567 -133.31814,35.64483 -133.44011,35.43429 -0.0889,-0.15346 -0.89653,-4.01748 -1.79472,-8.58671 -14.55375,-74.03668 -114.23794,-93.77085 -155.82872,-30.84894 -48.00623,72.62775 31.91272,164.82866 108.85006,125.57816 2.11304,-1.078 4.06614,-1.95999 4.34021,-1.95999 0.27407,0 0.49831,13.5 0.49831,30 v 30 h -6.51008 c -38.56941,0 -75.03506,36.83959 -75.15243,75.92308 -0.0351,11.69292 1.24238,11.04297 -14.08829,7.16773 z m -13.22827,-302.4093 c 5.99321,-8.79906 27.39429,-19.70323 38.80667,-19.77257 4.8687,-0.0296 4.96389,1.24201 -3.73173,-49.849243 -4.53482,-26.644373 -8.24615,-48.815576 -8.24742,-49.269339 -0.003,-1.068172 -12.99091,0.01431 -21.4029,1.783828 -18.72318,3.938542 -45.38265,16.883993 -60.12411,29.195391 l -2.60164,2.172773 27.06318,44.49377 c 14.88475,24.47158 27.27087,44.50671 27.52472,44.52252 0.25384,0.0158 1.4748,-1.4589 2.71323,-3.27713 z m 70.05719,-19.36844 c 3.21604,-0.35537 6.01984,-1.10773 6.23066,-1.67191 0.40194,-1.07561 -14.08458,-103.955431 -14.72867,-104.599522 -0.5821,-0.582096 -16.27241,1.781946 -16.27241,2.451747 0,0.32903 3.32307,23.818544 7.38461,52.19892 4.06154,28.380375 7.38462,51.977865 7.38462,52.438875 0,0.461 0.93461,0.6109 2.07692,0.3331 1.14231,-0.2778 4.70823,-0.79584 7.92427,-1.15121 z m 85.07573,244.2331 c 0,-36.55809 0.26531,-66.46925 0.58957,-66.46925 0.32427,0 26.88761,-7.06154 59.02965,-15.69231 32.14204,-8.63077 58.87673,-15.6923 59.41042,-15.6923 0.65045,0 0.97213,7.0755 0.97572,21.46153 l 0.005,21.46154 -4.75082,9.85097 -4.75081,9.85097 -6.1007,1.04565 c -35.97311,6.16569 -64.20329,36.6822 -66.29718,71.66652 l -0.5036,8.41411 -8.41919,5.1064 c -4.63055,2.80851 -13.09227,7.43717 -18.8038,10.28591 l -10.38462,5.17951 z m -104.1215,-82.12857 c -54.31007,-14.65916 -61.33307,-88.5396 -10.80158,-113.63028 37.62884,-18.68406 87.23077,9.5412 87.23077,49.63738 v 3.95991 h -9.23077 -9.23077 v 22.54357 22.54356 l -4.33561,3.70597 c -13.15001,11.24028 -35.93745,16.01594 -53.63204,11.23989 z m 25.1627,-42.81809 c 6.3086,-3.42316 10.54095,-12.09413 9.26291,-18.97726 -4.16128,-22.41137 -37.34049,-20.0252 -37.34049,2.68544 0,14.56975 15.10202,23.33259 28.07758,16.29182 z"
       id="path1" />
  </g>
</svg>
